<?xml version="1.0" standalone="no"?>
<!DOCTYPE svg PUBLIC "-//W3C//DTD SVG 20010904//EN"
 "http://www.w3.org/TR/2001/REC-SVG-20010904/DTD/svg10.dtd">
<svg version="1.0" xmlns="http://www.w3.org/2000/svg"
 width="700.000000pt" height="700.000000pt" viewBox="0 0 700.000000 700.000000"
 preserveAspectRatio="xMidYMid meet">
<metadata>
Created by potrace 1.11, written by Peter Selinger 2001-2013
</metadata>
<g transform="translate(0.000000,700.000000) scale(0.100000,-0.100000)"
fill="#000000" stroke="none">
<path d="M3378 6405 c-2 -1 -46 -5 -98 -8 -503 -30 -1043 -226 -1469 -533
-107 -76 -113 -81 -230 -184 -488 -429 -811 -994 -937 -1639 -8 -41 -17 -97
-20 -125 -3 -28 -7 -56 -9 -63 -17 -52 -24 -401 -13 -573 32 -472 201 -967
466 -1370 626 -951 1733 -1449 2857 -1285 615 90 1172 370 1625 817 81 81 122
126 229 253 39 47 149 205 198 284 202 329 355 752 399 1101 3 25 7 50 9 57
17 51 24 421 12 588 -69 941 -609 1803 -1430 2284 -370 216 -763 342 -1212
387 -68 6 -371 14 -377 9z m282 -219 c206 -10 427 -49 630 -112 858 -267 1523
-932 1783 -1784 38 -124 64 -226 73 -287 3 -21 7 -45 9 -53 4 -16 10 -55 25
-180 16 -132 5 -538 -18 -680 -111 -677 -447 -1260 -972 -1686 -384 -311 -862
-513 -1370 -578 -155 -20 -562 -15 -710 9 -885 140 -1612 665 -2011 1450 -103
204 -165 373 -218 595 -51 212 -63 315 -66 575 -4 276 4 373 51 603 202 990
982 1801 1974 2052 115 29 140 34 215 45 22 4 67 10 100 16 33 5 125 12 205
15 80 4 147 8 148 10 2 1 9 1 15 -1 7 -2 68 -6 137 -9z"/>
</g>
</svg>
